<?xml version="1.0" encoding="utf-8"?>
<svg width="10cm" height="10cm" version="1.1" style="shape-rendering:geometricPrecision; text-rendering:geometricPrecision; image-rendering:optimizeQuality; fill-rule:evenodd; clip-rule:evenodd" viewBox="0 0 7000 10000" xmlns="http://www.w3.org/2000/svg">
  <g id="Capa_x0020_1">
    <path class="fil0" d="M1129.81 1554.38c1501.98,-209.17 2368.13,244.1 3077.86,1025.52 663.47,730.48 1094.46,1901.71 656.5,3160.85 -498.82,-143.66 -572.64,-99.29 -962.92,81.26 56.3,280.83 104.06,635.56 -23.86,900.13 -126.1,260.75 -289.65,312.99 -612.45,377.37 -24.76,645.24 -618.12,990.24 -1269.85,1049.06 -183.58,16.57 -373.19,18.58 -550.63,-30 -637.68,-174.61 -207.05,144.73 -1354.77,-319.18l-4.33 432.48 718.63 268.23c33.9,213.78 110.75,747.92 253.51,839.61 134.17,139.1 1251.86,107.99 1486.63,40.35 237.84,-153.7 71.54,-804.97 356.93,-943.12 297.21,-143.82 389.26,-140.28 527.21,-1.06 129.25,130.47 126.85,127.4 252.21,227.88 371.22,297.52 198.54,320.16 795.09,-85.28 1012.02,-687.72 683.75,-481.07 338.9,-1446.55 279.81,-268.66 162.64,-379.45 445.12,-359.69 271.14,18.98 482.05,83.74 759.38,49.29 119.21,-167.84 494.1,-1235.88 418.47,-1434.15 -47.99,-87.21 -225.95,-163.27 -368.27,-241.58 -134.37,-73.94 -248.74,-157.68 -388.66,-202.88l6.3 -496.93c217.72,-194.8 549.89,-313.62 766.11,-488.82 15.43,-207.84 -361.97,-1289.93 -445.52,-1423.59 -235.71,-25.59 -691.27,37.05 -932.02,73.43 -104.37,-113.82 -184.8,-249.14 -296.26,-370.51 67.01,-279.37 320.24,-639.73 322.56,-908.63 -88.82,-134.37 -751.27,-574.49 -936.46,-704.34 -258.23,-181.03 -307.25,-140.71 -739.45,264.29 -261.58,245.2 -65.24,241.3 -674.89,66.58 -73.35,-227.84 -160.2,-854.49 -266.7,-913.59 -199.29,-55.24 -1210.68,-53.54 -1416.27,-0.24 -186.03,169.02 -170.51,658.39 -285.59,888.94 -179.53,111.69 -488.67,178.39 -695.01,262.6 -3.86,1062.45 -106.38,1058 251.81,1067.1 2281.99,57.76 2336.28,580.71 3154.83,837.45 -23.23,-278.51 -109.45,-601.62 -273.58,-746.58 -146.34,-129.21 -410.36,-259.25 -597.25,-359.1 -571.15,-305.24 -866.86,-260.47 -1493.28,-436.62z" style="fill: rgb(0, 56, 130);"/>
    <path class="fil0" d="M2031.51 4793.54l-233.78 24.17c-338.59,736.74 -346.7,1873.09 -335.59,2711.2l53.43 366.66c499.81,115.16 1437.73,-22.95 1547.61,-758.12 -1052.8,-1180.05 -970.09,-728 -1031.66,-2343.92z" style="fill: rgb(0, 56, 130);"/>
    <path class="fil0" d="M1160.52 7780.85c15.91,-573.67 35.43,-1095.13 141.18,-1641 49.37,-254.92 98.54,-495.56 173.47,-736.03 68.5,-219.92 169.02,-439.33 222.84,-659.22 -272.88,7.76 -501.62,459.14 -716.23,776.31 -175.91,260.04 -1063.67,1662.38 -950.4,1924.35 126.54,292.72 701.86,366.26 1129.14,335.59z" style="fill: rgb(0, 56, 130);"/>
    <path class="fil0" d="M2130.76 5285.79c82.56,984.61 1100.17,2016.47 1488,1480.41 128.19,-177.17 272.25,-539.65 166.18,-805.64 -8.07,-2.52 -20.79,-2.68 -25.24,-2.68l-53.27 -0.39c-7.52,0.75 -20.71,2.72 -28.94,3.98 -42.17,6.34 -91.77,24.21 -134.06,31.61 -597.88,104.57 -1214.85,-453.43 -1330.72,-937.65l-26.06 -190.67c-56.02,57.6 -36.26,0.24 -64.49,102.8 -12.52,45.59 -6.18,83.19 -5.39,129.73 0.87,52.05 12.36,127.72 13.98,188.51z" style="fill: rgb(0, 56, 130);"/>
    <path class="fil0" d="M3457.23 4005.7c-88.7,2.72 -133.66,-5.98 -226.97,25.08l-167.99 118.9 323.98 48.43c-49.45,35.75 -88.03,84.92 -134.29,142.8l-173.39 -41.18c-14.76,-77.4 59.53,86.1 14.76,-110.95 -244.37,-7.83 -87.28,-36.69 -215.99,58.15 -479.81,353.62 -115.2,1374.58 375.44,1124.58 164.57,-85.59 34.09,44.17 127.52,-153.19 64.09,-135.39 45.87,-61.06 48.7,-247.8 157.72,-12.68 160.99,15.39 280.12,-67.32 37.68,-259.41 -91.5,-526.07 -181.3,-717.64 185.04,-147.8 286.89,32.6 296.73,-347.25l-266.3 -119.41 -101.02 286.81z" style="fill: rgb(0, 56, 130);"/>
    <path class="fil0" d="M3582.59 3577.82c177.76,119.49 452.25,182.91 618.04,310.2 302.4,232.09 195.24,270.4 130.63,605.63 772.53,-188.94 225.59,-1823.72 -845.95,-1901.35 133.5,391.62 153.43,516.89 97.28,985.52z" style="fill: rgb(0, 56, 130);"/>
    <path class="fil0" d="M1153.91 4739.29c-34.69,56.26 -1.5,16.46 -58.47,68.11l-870.12 561.89c-322.84,228.11 -237.95,776.58 -118.39,1165.01 77.21,-50.43 23.23,-5.94 83.27,-67.21l559.14 -877.61c205.83,-313.35 444.92,-625.36 661.03,-882.68l-256.46 32.48z" style="fill: rgb(0, 56, 130);"/>
    <path class="fil0" d="M1990.88 4156.8c-23.74,-17.6 -225.83,0.55 -272.48,-14.37 -522.25,59.69 -1089.58,-49.09 -1621.98,99.1l-13.74 283.47c292.09,63.35 1012.88,9.61 1828.95,177.72 -85.28,-196.46 -71.18,-371.34 79.25,-545.91z" style="fill: rgb(0, 56, 130);"/>
    <path class="fil0" d="M1776 3000.89c-19.41,38.66 -18.35,-8.7 -31.5,106.5 -8.19,71.73 -9.06,74.88 4.72,148.43 32.76,174.92 177.44,465.12 474.06,427.88 595.52,-74.84 680.32,-5.59 1198.08,84.84l92.56 -522.41 -700.44 -321.14c-40.98,313.55 -138.11,529.14 -472.92,539.18 -449.26,13.5 -439.73,-333.47 -564.57,-463.27z" style="fill: rgb(0, 56, 130);"/>
    <path class="fil0" d="M86.5 3351.72c287.96,151.65 1441.11,458.63 1807.73,429.57 -251.38,-503.78 -288.86,-424.85 -711.7,-520.95 -237.56,-53.98 -877.09,-196.97 -1081.11,-185.04l-14.92 276.42z" style="fill: rgb(0, 56, 130);"/>
    <path class="fil0" d="M88.74 4062.47c161.81,72.21 613.78,11.06 825.64,3.19 501.81,-18.66 485.56,68.07 712.76,-196.85 -404.33,-28.19 -1311.47,-339.81 -1526.98,-317.25l-11.42 510.91z" style="fill: rgb(0, 56, 130);"/>
    <path class="fil0" d="M87.95 2405.73c3.46,285.12 109.06,139.49 818.63,261.07 332.72,57.05 615.71,147.48 912.84,211.66l161.38 -247.25c-259.88,-116.81 -1647.93,-375.67 -1892.85,-225.47z" style="fill: rgb(0, 56, 130);"/>
    <path class="fil0" d="M1571.67 4042.55c516.85,52.84 761.38,-64.25 968.43,387.52 173.54,-374.92 322.64,-412.01 749.77,-565.12 -521.93,-205.12 -1342.88,-126.46 -1718.2,177.6z" style="fill: rgb(0, 56, 130);"/>
    <path class="fil0" d="M84.49 2883.01l1538.12 355.51 -30.51 -286.14 -134.61 -58.11c-53.74,-17.52 -120.55,-29.76 -176.46,-40.91l-1182.73 -171.73 -13.82 201.38z" style="fill: rgb(0, 56, 130);"/>
    <path class="fil0" d="M1153.91 4739.29c21.02,-38.74 12.56,-46.61 14.37,-60.98 -291.46,-26.93 -787.21,-55.28 -1064.69,5.39l-14.72 570.08c234.77,-8.62 744.22,-460.75 1065.05,-514.49z" style="fill: rgb(0, 56, 130);"/>
    <path class="fil0" d="M2226.71 4961.77c152.32,495.75 908.43,1233.12 1420.09,743.16 -95.95,-47.76 -131.22,-28.35 -238.51,-71.38 -110.71,-44.37 -86.06,-60.87 -171.34,-93.39 -151.81,-57.84 -297.99,-29.41 -454.53,-102.6 -365.16,-170.67 -432.6,-473.31 -523.23,-591.23l-37.83 22.44c-14.88,8.82 3.46,46.18 5.35,92.99z" style="fill: rgb(0, 56, 130);"/>
    <path class="fil0" d="M2484.47 2711.48l-332.96 -9.29c-80.04,127.95 -186.62,196.06 -148.86,384.14 89.1,444.02 971.94,281.07 481.81,-374.85z" style="fill: rgb(0, 56, 130);"/>
    <path class="fil0" d="M1983.2 4636.61c324.92,132.56 574.06,-65.2 390.24,-309.25 -141.93,-188.43 -481.46,-135.16 -390.24,309.25z" style="fill: rgb(0, 56, 130);"/>
    <path class="fil0" d="M2303.88 4798.74c82.21,212.09 194.45,375.24 385.04,472.6 -84.49,-172.4 -182.05,-331.5 -195.55,-584.65l-189.49 112.05z" style="fill: rgb(0, 56, 130);"/>
  </g>
</svg>