<?xml version="1.0" encoding="UTF-8" standalone="no"?>
<!DOCTYPE svg PUBLIC "-//W3C//DTD SVG 1.1//EN" "http://www.w3.org/Graphics/SVG/1.1/DTD/svg11.dtd">
<!-- Creator: CorelDRAW 2020 (64-Bit) -->
<svg
xml:space="preserve" 
width="10%" 
height="10%" 
version="1.1" 
style="shape-rendering:geometricPrecision; text-rendering:geometricPrecision; image-rendering:optimizeQuality; fill-rule:evenodd; clip-rule:evenodd"
viewBox="0 0 7000 10000"
 id="svg12459"
   sodipodi:docname="t2.svg"
   inkscape:version="1.1.2 (b8e25be833, 2022-02-05)"
   xmlns:inkscape="http://www.inkscape.org/namespaces/inkscape"
   xmlns:sodipodi="http://sodipodi.sourceforge.net/DTD/sodipodi-0.dtd"
   xmlns="http://www.w3.org/2000/svg"
   xmlns:svg="http://www.w3.org/2000/svg"><defs
   id="defs12463" /><sodipodi:namedview
   id="namedview12461"
   pagecolor="#ffffff"
   bordercolor="#666666"
   borderopacity="1.0"
   inkscape:pageshadow="2"
   inkscape:pageopacity="0.0"
   inkscape:pagecheckerboard="0"
   inkscape:document-units="cm"
   showgrid="false"
   inkscape:zoom="2.3098125"
   inkscape:cx="103.68807"
   inkscape:cy="189.19285"
   inkscape:window-width="3440"
   inkscape:window-height="1369"
   inkscape:window-x="-8"
   inkscape:window-y="-8"
   inkscape:window-maximized="1"
   inkscape:current-layer="Capa_x0020_1" />

 <g id="Capa_x0020_1">
  <metadata 
    id="CorelCorpID_0Corel-Layer"/>
  <path class="fil0" 
     d="M1302.13 1696.52c1569.82,-218.61 2475.05,255.12 3216.84,1071.85 693.43,763.47 1143.87,1987.57 686.18,3303.59 -521.36,-150.14 -598.54,-103.78 -1006.43,84.92 58.85,293.52 108.76,664.27 -24.94,940.77 -131.78,272.51 -302.71,327.12 -640.08,394.4 -25.89,674.39 -646.04,1034.97 -1327.23,1096.44 -191.86,17.32 -390.03,19.42 -575.49,-31.34 -666.46,-182.5 -216.41,151.24 -1415.94,-333.59l-4.53 451.99 751.1 280.35c35.42,223.44 115.74,781.71 264.91,877.54 140.25,145.39 1308.42,112.88 1553.77,42.19 248.58,-160.65 74.78,-841.32 373.07,-985.71 310.63,-150.33 406.83,-146.62 550.99,-1.13 135.12,136.39 132.59,133.17 263.6,238.17 387.98,310.95 207.54,334.63 831.02,-89.11 1057.69,-718.79 714.62,-502.79 354.21,-1511.9 292.41,-280.78 169.96,-396.56 465.21,-375.9 283.38,19.8 503.82,87.51 793.68,51.51 124.58,-175.44 516.39,-1291.69 437.33,-1498.93 -50.15,-91.13 -236.15,-170.63 -384.88,-252.47 -140.44,-77.29 -260,-164.78 -406.23,-212.02l6.58 -519.39c227.57,-203.6 574.74,-327.78 800.71,-510.92 16.12,-217.21 -378.29,-1348.14 -465.63,-1487.88 -246.35,-26.73 -722.46,38.75 -974.09,76.76 -109.11,-118.97 -193.14,-260.37 -309.66,-387.25 70.05,-291.97 334.71,-668.62 337.13,-949.65 -92.85,-140.46 -785.18,-600.44 -978.75,-736.14 -269.89,-189.22 -321.1,-147.09 -772.84,276.23 -273.41,256.24 -68.2,252.19 -705.38,69.56 -76.64,-238.12 -167.41,-893.06 -278.73,-954.83 -208.29,-57.73 -1265.34,-55.97 -1480.22,-0.24 -194.43,176.65 -178.21,688.09 -298.49,929.07 -187.64,116.75 -510.75,186.46 -726.38,274.45 -1,272.96 -8.23,478.53 -13,633.51 -1.25,40.86 -3.1,78.22 -3.1,112.3 0,0.06 0,0.11 0,0.16 334.04,-170.91 701.44,-295.13 1106.03,-367.26 0.11,-0.02 -0.22,-0.07 -0.34,-0.1z"
     id="path12456"
     style="fill:#243e77;fill-opacity:1"/>
 </g>
</svg>
