<?xml version="1.0" encoding="UTF-8" standalone="no"?>
<!-- Creator: CorelDRAW 2020 (64-Bit) -->

<svg
   xml:space="preserve"
   width="10cm"
   height="10cm"
   version="1.1"
   style="shape-rendering:geometricPrecision; text-rendering:geometricPrecision; image-rendering:optimizeQuality; fill-rule:evenodd; clip-rule:evenodd"
   viewBox="0 0 7000 10000"
   id="svg12792"
   sodipodi:docname="t4.svg"
   inkscape:version="1.1.2 (b8e25be833, 2022-02-05)"
   xmlns:inkscape="http://www.inkscape.org/namespaces/inkscape"
   xmlns:sodipodi="http://sodipodi.sourceforge.net/DTD/sodipodi-0.dtd"
   xmlns="http://www.w3.org/2000/svg"
   xmlns:svg="http://www.w3.org/2000/svg"><defs
   id="defs12796" /><sodipodi:namedview
   id="namedview12794"
   pagecolor="#ffffff"
   bordercolor="#666666"
   borderopacity="1.0"
   inkscape:pageshadow="2"
   inkscape:pageopacity="0.0"
   inkscape:pagecheckerboard="0"
   inkscape:document-units="cm"
   showgrid="false"
   inkscape:zoom="2.3098125"
   inkscape:cx="103.4716"
   inkscape:cy="188.97638"
   inkscape:window-width="1283"
   inkscape:window-height="1082"
   inkscape:window-x="423"
   inkscape:window-y="129"
   inkscape:window-maximized="0"
   inkscape:current-layer="Capa_x0020_1" />
 <g
   id="Capa_x0020_1"
   inkscape:label="Capa 1">
  <metadata
   id="CorelCorpID_0Corel-Layer" />
  <path
   class="fil0"
   d="M2130.76 5285.79c82.56,984.61 1100.17,2016.47 1488,1480.41 128.19,-177.17 272.25,-539.65 166.18,-805.64 -8.07,-2.52 -20.79,-2.68 -25.24,-2.68l-53.27 -0.39c-7.52,0.75 -20.71,2.72 -28.94,3.98 -42.17,6.34 -91.77,24.21 -134.06,31.61 -597.88,104.57 -1214.85,-453.43 -1330.72,-937.65l-26.06 -190.67c-56.02,57.6 -36.26,0.24 -64.49,102.8 -12.52,45.59 -6.18,83.19 -5.39,129.73 0.87,52.05 12.36,127.72 13.98,188.51z"
   id="path12789"
   style="fill:#243e77;fill-opacity:1" />
 </g>
</svg>
