<?xml version="1.0" encoding="UTF-8" standalone="no"?>
<!-- Creator: CorelDRAW 2020 (64-Bit) -->

<svg
   xml:space="preserve"
   width="10cm"
   height="10cm"
   version="1.1"
   style="shape-rendering:geometricPrecision; text-rendering:geometricPrecision; image-rendering:optimizeQuality; fill-rule:evenodd; clip-rule:evenodd"
   viewBox="0 0 7000 10000"
   id="svg6"
   sodipodi:docname="t5.svg"
   inkscape:version="1.1.2 (b8e25be833, 2022-02-05)"
   xmlns:inkscape="http://www.inkscape.org/namespaces/inkscape"
   xmlns:sodipodi="http://sodipodi.sourceforge.net/DTD/sodipodi-0.dtd"
   xmlns="http://www.w3.org/2000/svg"
   xmlns:svg="http://www.w3.org/2000/svg"><defs
   id="defs10" /><sodipodi:namedview
   id="namedview8"
   pagecolor="#ffffff"
   bordercolor="#666666"
   borderopacity="1.0"
   inkscape:pageshadow="2"
   inkscape:pageopacity="0.0"
   inkscape:pagecheckerboard="0"
   inkscape:document-units="cm"
   showgrid="false"
   inkscape:zoom="2.3098125"
   inkscape:cx="189.19285"
   inkscape:cy="188.97638"
   inkscape:window-width="1283"
   inkscape:window-height="1082"
   inkscape:window-x="390"
   inkscape:window-y="143"
   inkscape:window-maximized="0"
   inkscape:current-layer="Capa_x0020_1" />
 <g
   id="Capa_x0020_1"
   inkscape:label="Capa 1">
  <metadata
   id="CorelCorpID_0Corel-Layer" />
  <path
   class="fil0"
   d="M3457.23 4005.7c-88.7,2.72 -133.66,-5.98 -226.97,25.08l-167.99 118.9 323.98 48.43c-49.45,35.75 -88.03,84.92 -134.29,142.8l-173.39 -41.18c-14.76,-77.4 59.53,86.1 14.76,-110.95 -244.37,-7.83 -87.28,-36.69 -215.99,58.15 -479.81,353.62 -115.2,1374.58 375.44,1124.58 164.57,-85.59 34.09,44.17 127.52,-153.19 64.09,-135.39 45.87,-61.06 48.7,-247.8 157.72,-12.68 160.99,15.39 280.12,-67.32 37.68,-259.41 -91.5,-526.07 -181.3,-717.64 185.04,-147.8 286.89,32.6 296.73,-347.25l-266.3 -119.41 -101.02 286.81z"
   id="path3"
   style="fill:#243e77;fill-opacity:1" />
 </g>
</svg>
